<svg xmlns="http://www.w3.org/2000/svg" viewBox="0 0 512 512"><g data-name="Shopping cart"><path fill="#29bdc5" stroke="#231f20" stroke-linecap="round" stroke-linejoin="round" stroke-width="15" d="M502.52,120.67,419.29,309.19H189.16L126.58,96.74H487A17,17,0,0,1,502.52,120.67Z"/><path fill="none" stroke="#231f20" stroke-linecap="round" stroke-linejoin="round" stroke-width="15" d="M126.63,96.77s0-37-30.79-37h-40"/><circle cx="419.08" cy="445.67" r="30.07" fill="#29bdc5" stroke="#231f20" stroke-miterlimit="10" stroke-width="15"/><circle cx="184.41" cy="445.67" r="30.07" fill="#29bdc5" stroke="#231f20" stroke-miterlimit="10" stroke-width="15"/><circle cx="32.3" cy="59.82" r="23.56" fill="#29bdc5" stroke="#231f20" stroke-linecap="round" stroke-linejoin="round" stroke-width="15"/><path fill="none" stroke="#231f20" stroke-linecap="round" stroke-linejoin="round" stroke-width="15" d="M463.82,375.89a14.95,14.95,0,0,1-14.95,15H153.29l13.15-29.9,22.76-51.76h31.12l-22.76,51.76H448.87A15,15,0,0,1,463.82,375.89Z"/><line x1="419.08" x2="364.79" y1="445.67" y2="391.39" fill="none" stroke="#231f20" stroke-linecap="round" stroke-linejoin="round" stroke-width="15"/><line x1="184.41" x2="240.28" y1="445.67" y2="391.39" fill="none" stroke="#231f20" stroke-linecap="round" stroke-linejoin="round" stroke-width="15"/></g></svg>